<?xml version="1.0" standalone="no"?>
<!DOCTYPE svg PUBLIC "-//W3C//DTD SVG 20010904//EN"
 "http://www.w3.org/TR/2001/REC-SVG-20010904/DTD/svg10.dtd">
<svg version="1.0" xmlns="http://www.w3.org/2000/svg"
 width="300.000000pt" height="300.000000pt" viewBox="0 0 300.000000 300.000000"
 preserveAspectRatio="xMidYMid meet">
<metadata>
Created by potrace 1.11, written by Peter Selinger 2001-2013
</metadata>
<g transform="translate(0.000000,300.000000) scale(0.100000,-0.100000)"
fill="#000000" stroke="none">
<path d="M1160 2959 c-91 -21 -174 -41 -185 -43 -78 -17 -343 -78 -354 -82
-10 -3 19 -39 89 -109 57 -57 102 -106 99 -109 -2 -2 -38 -24 -78 -48 -41 -24
-82 -56 -90 -71 -9 -15 -47 -49 -86 -75 -231 -162 -400 -395 -490 -679 -100
-316 -77 -622 69 -938 164 -352 462 -627 796 -735 169 -54 250 -64 510 -64
226 0 255 3 378 28 339 69 599 204 821 427 180 181 314 430 351 651 16 97 8
353 -15 458 -25 113 -99 328 -145 421 -128 258 -341 461 -634 606 -107 52
-262 107 -340 119 -21 3 -48 8 -60 10 -11 3 -66 7 -121 11 -85 5 -109 10 -156
35 -51 27 -63 29 -113 23 -31 -4 -57 -3 -57 1 -1 5 -3 29 -4 54 -7 123 -9 141
-14 144 -3 2 -80 -14 -171 -35z m68 -101 c-3 -7 -22 -25 -44 -40 -91 -64 -266
-97 -337 -63 -20 9 -37 21 -37 25 0 4 21 11 48 15 26 5 52 9 57 11 6 1 35 7
65 13 30 6 66 14 80 17 14 3 36 7 49 10 13 3 40 9 60 13 52 13 63 12 59 -1z
m17 -133 c-1 -66 -30 -108 -90 -131 -47 -18 -127 -14 -169 8 -19 10 -86 72
-86 80 0 2 37 3 83 4 68 1 92 5 140 29 55 26 106 73 108 98 3 33 15 -45 14
-88z m259 -61 c56 -31 52 -36 -51 -53 -40 -7 -73 -16 -73 -19 0 -4 16 -33 35
-65 19 -32 35 -60 35 -63 0 -3 -12 -3 -27 0 -16 3 -46 8 -68 11 -22 3 -64 9
-93 14 l-53 8 -15 -36 c-8 -20 -27 -63 -43 -96 l-28 -60 -29 78 c-16 42 -32
77 -37 77 -4 0 -75 -26 -157 -59 l-150 -59 0 62 1 61 101 58 101 58 22 -21
c28 -27 99 -48 146 -45 74 5 137 59 146 124 3 23 11 41 17 41 27 1 121 13 125
16 9 8 48 -5 95 -32z m414 -110 c31 -10 56 -23 63 -36 8 -15 17 -19 39 -14 32
6 102 -25 216 -95 302 -184 485 -446 574 -821 32 -136 46 -272 30 -312 -5 -14
-5 -28 0 -31 4 -3 7 -17 5 -33 -2 -15 -6 -43 -8 -62 -25 -195 -140 -410 -312
-585 -117 -119 -260 -223 -291 -211 -10 4 -26 -5 -43 -22 -63 -68 -277 -138
-525 -172 -67 -10 -81 -9 -95 4 -23 21 -58 20 -70 -1 -8 -15 -24 -17 -108 -16
-230 5 -370 36 -549 124 -291 144 -514 407 -624 739 -35 106 -36 110 -12 110
11 0 27 9 37 20 15 17 16 24 6 46 -10 23 -16 26 -45 21 -29 -5 -35 -2 -40 16
-7 27 0 292 8 332 21 97 93 310 108 319 2 1 16 7 31 14 24 10 28 17 25 52 -1
31 6 50 35 93 56 82 242 267 267 267 4 0 6 -23 5 -50 -2 -59 -23 -62 194 21
85 33 158 56 162 52 4 -5 31 -69 59 -143 29 -74 54 -139 57 -144 3 -5 16 16
28 45 12 30 31 75 43 100 11 25 30 69 42 98 11 29 27 65 35 80 l14 28 74 -13
c41 -7 96 -16 123 -19 27 -3 76 -10 108 -15 33 -5 61 -8 63 -6 2 2 -21 45 -52
96 -31 51 -54 94 -52 96 2 2 19 6 38 9 19 3 75 14 124 25 94 19 126 18 213 -6z"/>
<path d="M1755 2500 c3 -5 10 -10 16 -10 5 0 9 5 9 10 0 6 -7 10 -16 10 -8 0
-12 -4 -9 -10z"/>
<path d="M2197 2376 c-3 -8 0 -21 6 -30 11 -15 15 -15 31 -3 12 9 17 20 13 31
-8 20 -43 21 -50 2z"/>
<path d="M1926 2312 c-3 -6 -1 -14 5 -17 15 -10 25 3 12 16 -7 7 -13 7 -17 1z"/>
<path d="M1302 2229 c2 -6 8 -10 13 -10 5 0 11 4 13 10 2 6 -4 11 -13 11 -9 0
-15 -5 -13 -11z"/>
<path d="M596 2213 c-11 -11 -6 -23 9 -23 8 0 15 4 15 9 0 13 -16 22 -24 14z"/>
<path d="M856 2182 c-3 -6 -1 -14 5 -17 15 -10 25 3 12 16 -7 7 -13 7 -17 1z"/>
<path d="M1761 2115 c-55 -29 -66 -115 -30 -231 54 -176 139 -280 218 -267 82
12 82 101 2 300 -73 181 -124 234 -190 198z"/>
<path d="M2317 2114 c-4 -4 -7 -18 -7 -31 0 -21 4 -24 28 -21 21 2 27 8 27 28
0 18 -6 26 -20 28 -12 2 -24 0 -28 -4z"/>
<path d="M551 2051 c-19 -12 -6 -57 18 -64 29 -7 54 15 49 44 -3 26 -41 37
-67 20z"/>
<path d="M1313 1998 c-92 -66 -96 -234 -9 -406 60 -120 125 -177 198 -174 53
2 84 25 96 72 29 114 -55 382 -151 487 -46 50 -84 56 -134 21z"/>
<path d="M2566 1971 c-4 -7 -5 -15 -2 -18 9 -9 19 4 14 18 -4 11 -6 11 -12 0z"/>
<path d="M794 1895 c-8 -19 3 -35 26 -35 19 0 30 17 23 38 -6 17 -42 15 -49
-3z"/>
<path d="M2290 1842 c0 -49 30 -119 65 -151 l34 -31 -16 -52 c-69 -236 -288
-420 -605 -512 -103 -29 -164 -38 -298 -41 -154 -3 -310 22 -423 70 -34 14
-36 17 -26 37 12 23 8 163 -6 176 -4 4 -23 -11 -42 -33 -53 -61 -214 -306
-210 -319 9 -28 140 19 188 68 l27 27 33 -31 c99 -92 250 -162 404 -187 81
-13 354 -10 415 5 237 58 382 149 489 308 88 131 123 246 123 400 -1 76 1 81
18 77 23 -6 118 15 125 28 9 14 -252 189 -282 189 -8 0 -13 -12 -13 -28z"/>
<path d="M532 1748 c-24 -24 -5 -59 28 -51 24 6 34 32 19 49 -14 17 -31 18
-47 2z"/>
<path d="M925 1589 c-10 -15 3 -25 16 -12 7 7 7 13 1 17 -6 3 -14 1 -17 -5z"/>
<path d="M286 1577 c-23 -17 -18 -55 10 -74 20 -13 25 -12 50 10 27 24 28 25
11 51 -19 29 -43 33 -71 13z"/>
<path d="M2630 1454 c-11 -12 -11 -18 2 -30 8 -8 22 -12 31 -8 21 8 22 40 1
48 -21 8 -20 8 -34 -10z"/>
<path d="M572 1448 c-15 -18 1 -41 24 -36 23 4 26 41 3 46 -9 1 -21 -3 -27
-10z"/>
<path d="M527 1079 c-19 -11 -21 -18 -8 -38 10 -16 51 -6 51 13 0 22 -23 36
-43 25z"/>
<path d="M2653 1079 c-17 -17 -4 -39 24 -39 20 0 24 4 21 22 -3 26 -28 34 -45
17z"/>
<path d="M2227 804 c-8 -8 1 -24 14 -24 5 0 9 7 9 15 0 15 -12 20 -23 9z"/>
<path d="M1416 705 c4 -8 10 -12 15 -9 14 8 10 24 -6 24 -9 0 -12 -6 -9 -15z"/>
<path d="M572 687 c-16 -19 8 -50 34 -45 28 5 26 52 -2 56 -11 2 -26 -3 -32
-11z"/>
<path d="M1097 576 c-7 -19 18 -40 38 -32 8 3 15 15 15 26 0 14 -7 20 -24 20
-13 0 -26 -6 -29 -14z"/>
<path d="M2005 413 c-15 -14 -15 -18 -1 -31 18 -19 46 -9 46 17 0 26 -26 34
-45 14z"/>
<path d="M1295 362 c-10 -11 -5 -40 10 -52 20 -17 47 5 43 34 -3 20 -39 32
-53 18z"/>
<path d="M800 335 c0 -16 16 -20 24 -6 3 5 -1 11 -9 15 -9 3 -15 0 -15 -9z"/>
</g>
</svg>
